<svg id="visual" viewBox="0 0 2000 2000" width="2000" height="2000" xmlns="http://www.w3.org/2000/svg" xmlns:xlink="http://www.w3.org/1999/xlink" version="1.1"><g stroke-width="1" stroke-linejoin="bevel"><path d="M946.1 975.1L875.1 1061.9L1117.9 1010.9Z" fill="#191919" stroke="#a239ea"></path><path d="M875.1 1061.9L929.1 1267.7L1117.9 1010.9Z" fill="#1b1b1b" stroke="#a239ea"></path><path d="M1117.9 1010.9L1112.9 890.1L946.1 975.1Z" fill="#171717" stroke="#a239ea"></path><path d="M1164.9 1308.7L1261.7 1161.9L1117.9 1010.9Z" fill="#202020" stroke="#a239ea"></path><path d="M1117.9 1010.9L1247.7 978.1L1112.9 890.1Z" fill="#181818" stroke="#a239ea"></path><path d="M929.1 1267.7L1164.9 1308.7L1117.9 1010.9Z" fill="#242424" stroke="#a239ea"></path><path d="M1261.7 1161.9L1247.7 978.1L1117.9 1010.9Z" fill="#232323" stroke="#a239ea"></path><path d="M929.1 1267.7L1015.9 1398.5L1164.9 1308.7Z" fill="#171717" stroke="#a239ea"></path><path d="M686.3 874.1L703.3 1141.9L875.1 1061.9Z" fill="#212121" stroke="#a239ea"></path><path d="M875.1 1061.9L703.3 1141.9L929.1 1267.7Z" fill="#212121" stroke="#a239ea"></path><path d="M929.1 1267.7L917.1 1416.5L1015.9 1398.5Z" fill="#171717" stroke="#a239ea"></path><path d="M1112.9 890.1L952.1 794.3L946.1 975.1Z" fill="#232323" stroke="#a239ea"></path><path d="M946.1 975.1L686.3 874.1L875.1 1061.9Z" fill="#181818" stroke="#a239ea"></path><path d="M678.3 1331.7L917.1 1416.5L929.1 1267.7Z" fill="#191919" stroke="#a239ea"></path><path d="M1164.9 1308.7L1340.7 1255.7L1261.7 1161.9Z" fill="#191919" stroke="#a239ea"></path><path d="M1261.7 1161.9L1376.5 919.1L1247.7 978.1Z" fill="#171717" stroke="#a239ea"></path><path d="M1235.7 1405.5L1340.7 1255.7L1164.9 1308.7Z" fill="#202020" stroke="#a239ea"></path><path d="M1266.7 1558.4L1235.7 1405.5L1015.9 1398.5Z" fill="#1d1d1d" stroke="#a239ea"></path><path d="M1015.9 1398.5L1235.7 1405.5L1164.9 1308.7Z" fill="#1c1c1c" stroke="#a239ea"></path><path d="M952.1 794.3L686.3 874.1L946.1 975.1Z" fill="#191919" stroke="#a239ea"></path><path d="M1226.7 617.5L1072.9 704.3L1306.7 650.3Z" fill="#1b1b1b" stroke="#a239ea"></path><path d="M1112.9 890.1L1072.9 704.3L952.1 794.3Z" fill="#191919" stroke="#a239ea"></path><path d="M952.1 794.3L710.3 659.3L686.3 874.1Z" fill="#181818" stroke="#a239ea"></path><path d="M589.5 1251.7L678.3 1331.7L703.3 1141.9Z" fill="#1d1d1d" stroke="#a239ea"></path><path d="M703.3 1141.9L678.3 1331.7L929.1 1267.7Z" fill="#181818" stroke="#a239ea"></path><path d="M1520.5 1020.9L1376.5 919.1L1261.7 1161.9Z" fill="#242424" stroke="#a239ea"></path><path d="M1247.7 978.1L1376.5 919.1L1112.9 890.1Z" fill="#1c1c1c" stroke="#a239ea"></path><path d="M483.5 1065.9L589.5 1251.7L703.3 1141.9Z" fill="#181818" stroke="#a239ea"></path><path d="M1407.5 1453.5L1466.5 1209.7L1340.7 1255.7Z" fill="#232323" stroke="#a239ea"></path><path d="M1340.7 1255.7L1466.5 1209.7L1261.7 1161.9Z" fill="#181818" stroke="#a239ea"></path><path d="M767.3 1565.4L930.1 1584.4L917.1 1416.5Z" fill="#181818" stroke="#a239ea"></path><path d="M917.1 1416.5L930.1 1584.4L1015.9 1398.5Z" fill="#202020" stroke="#a239ea"></path><path d="M671.3 1482.5L917.1 1416.5L678.3 1331.7Z" fill="#1c1c1c" stroke="#a239ea"></path><path d="M540.5 775.3L554.5 913.1L686.3 874.1Z" fill="#202020" stroke="#a239ea"></path><path d="M686.3 874.1L554.5 913.1L703.3 1141.9Z" fill="#1c1c1c" stroke="#a239ea"></path><path d="M533.5 1405.5L671.3 1482.5L678.3 1331.7Z" fill="#232323" stroke="#a239ea"></path><path d="M1466.5 1209.7L1520.5 1020.9L1261.7 1161.9Z" fill="#1e1e1e" stroke="#a239ea"></path><path d="M1306.7 650.3L1072.9 704.3L1112.9 890.1Z" fill="#242424" stroke="#a239ea"></path><path d="M671.3 1482.5L767.3 1565.4L917.1 1416.5Z" fill="#1e1e1e" stroke="#a239ea"></path><path d="M1137.9 1666.4L1266.7 1558.4L1015.9 1398.5Z" fill="#1b1b1b" stroke="#a239ea"></path><path d="M1235.7 1405.5L1407.5 1453.5L1340.7 1255.7Z" fill="#171717" stroke="#a239ea"></path><path d="M554.5 913.1L483.5 1065.9L703.3 1141.9Z" fill="#1e1e1e" stroke="#a239ea"></path><path d="M589.5 1251.7L533.5 1405.5L678.3 1331.7Z" fill="#171717" stroke="#a239ea"></path><path d="M1306.7 650.3L1112.9 890.1L1376.5 919.1Z" fill="#191919" stroke="#a239ea"></path><path d="M865.1 533.5L710.3 659.3L952.1 794.3Z" fill="#242424" stroke="#a239ea"></path><path d="M1266.7 1558.4L1407.5 1453.5L1235.7 1405.5Z" fill="#202020" stroke="#a239ea"></path><path d="M1466.5 1209.7L1575.4 1213.7L1520.5 1020.9Z" fill="#1d1d1d" stroke="#a239ea"></path><path d="M865.1 533.5L952.1 794.3L1072.9 704.3Z" fill="#1e1e1e" stroke="#a239ea"></path><path d="M1428.5 677.3L1306.7 650.3L1376.5 919.1Z" fill="#202020" stroke="#a239ea"></path><path d="M382.6 1313.7L533.5 1405.5L589.5 1251.7Z" fill="#1c1c1c" stroke="#a239ea"></path><path d="M671.3 1482.5L611.5 1685.4L767.3 1565.4Z" fill="#202020" stroke="#a239ea"></path><path d="M710.3 659.3L540.5 775.3L686.3 874.1Z" fill="#1e1e1e" stroke="#a239ea"></path><path d="M554.5 913.1L373.6 1022.9L483.5 1065.9Z" fill="#191919" stroke="#a239ea"></path><path d="M1395.5 527.5L1128.9 538.5L1226.7 617.5Z" fill="#191919" stroke="#a239ea"></path><path d="M1226.7 617.5L1128.9 538.5L1072.9 704.3Z" fill="#1b1b1b" stroke="#a239ea"></path><path d="M1567.4 1445.5L1575.4 1213.7L1466.5 1209.7Z" fill="#1e1e1e" stroke="#a239ea"></path><path d="M1116.9 1803.2L1137.9 1666.4L930.1 1584.4Z" fill="#232323" stroke="#a239ea"></path><path d="M930.1 1584.4L1137.9 1666.4L1015.9 1398.5Z" fill="#1e1e1e" stroke="#a239ea"></path><path d="M1266.7 1558.4L1426.5 1574.4L1407.5 1453.5Z" fill="#242424" stroke="#a239ea"></path><path d="M1128.9 538.5L865.1 533.5L1072.9 704.3Z" fill="#212121" stroke="#a239ea"></path><path d="M710.3 659.3L676.3 609.5L540.5 775.3Z" fill="#212121" stroke="#a239ea"></path><path d="M865.1 533.5L676.3 609.5L710.3 659.3Z" fill="#1e1e1e" stroke="#a239ea"></path><path d="M1612.4 719.3L1428.5 677.3L1376.5 919.1Z" fill="#181818" stroke="#a239ea"></path><path d="M1306.7 650.3L1395.5 527.5L1226.7 617.5Z" fill="#232323" stroke="#a239ea"></path><path d="M1395.5 527.5L1428.5 677.3L1633.4 573.5Z" fill="#1c1c1c" stroke="#a239ea"></path><path d="M1351.7 1803.2L1426.5 1574.4L1266.7 1558.4Z" fill="#191919" stroke="#a239ea"></path><path d="M1407.5 1453.5L1567.4 1445.5L1466.5 1209.7Z" fill="#171717" stroke="#a239ea"></path><path d="M333.6 949.1L373.6 1022.9L554.5 913.1Z" fill="#232323" stroke="#a239ea"></path><path d="M483.5 1065.9L382.6 1313.7L589.5 1251.7Z" fill="#1c1c1c" stroke="#a239ea"></path><path d="M1426.5 1574.4L1567.4 1445.5L1407.5 1453.5Z" fill="#202020" stroke="#a239ea"></path><path d="M373.6 1022.9L382.6 1313.7L483.5 1065.9Z" fill="#1b1b1b" stroke="#a239ea"></path><path d="M407.6 1609.4L611.5 1685.4L671.3 1482.5Z" fill="#1e1e1e" stroke="#a239ea"></path><path d="M1653.4 830.1L1376.5 919.1L1520.5 1020.9Z" fill="#1e1e1e" stroke="#a239ea"></path><path d="M1428.5 677.3L1395.5 527.5L1306.7 650.3Z" fill="#1e1e1e" stroke="#a239ea"></path><path d="M1128.9 538.5L1022.9 377.6L865.1 533.5Z" fill="#242424" stroke="#a239ea"></path><path d="M540.5 775.3L333.6 949.1L554.5 913.1Z" fill="#1d1d1d" stroke="#a239ea"></path><path d="M373.6 1022.9L228.8 1078.9L382.6 1313.7Z" fill="#171717" stroke="#a239ea"></path><path d="M360.6 671.3L333.6 949.1L540.5 775.3Z" fill="#191919" stroke="#a239ea"></path><path d="M1714.4 1061.9L1520.5 1020.9L1575.4 1213.7Z" fill="#242424" stroke="#a239ea"></path><path d="M1714.4 1061.9L1653.4 830.1L1520.5 1020.9Z" fill="#191919" stroke="#a239ea"></path><path d="M1748.2 1049.9L1714.4 1061.9L1795.2 1318.7Z" fill="#1d1d1d" stroke="#a239ea"></path><path d="M407.6 1609.4L671.3 1482.5L533.5 1405.5Z" fill="#1e1e1e" stroke="#a239ea"></path><path d="M767.3 1565.4L848.1 1807.2L930.1 1584.4Z" fill="#1e1e1e" stroke="#a239ea"></path><path d="M848.1 1807.2L1116.9 1803.2L930.1 1584.4Z" fill="#212121" stroke="#a239ea"></path><path d="M1137.9 1666.4L1351.7 1803.2L1266.7 1558.4Z" fill="#232323" stroke="#a239ea"></path><path d="M1653.4 830.1L1612.4 719.3L1376.5 919.1Z" fill="#171717" stroke="#a239ea"></path><path d="M1255.7 314.6L1022.9 377.6L1128.9 538.5Z" fill="#232323" stroke="#a239ea"></path><path d="M798.3 322.6L562.5 501.5L676.3 609.5Z" fill="#181818" stroke="#a239ea"></path><path d="M724.3 1808.2L848.1 1807.2L767.3 1565.4Z" fill="#242424" stroke="#a239ea"></path><path d="M1714.4 1061.9L1748.2 1049.9L1653.4 830.1Z" fill="#1e1e1e" stroke="#a239ea"></path><path d="M1852.2 736.3L1633.4 573.5L1612.4 719.3Z" fill="#171717" stroke="#a239ea"></path><path d="M1795.2 1318.7L1714.4 1061.9L1575.4 1213.7Z" fill="#1c1c1c" stroke="#a239ea"></path><path d="M798.3 322.6L676.3 609.5L865.1 533.5Z" fill="#171717" stroke="#a239ea"></path><path d="M676.3 609.5L562.5 501.5L540.5 775.3Z" fill="#171717" stroke="#a239ea"></path><path d="M611.5 1685.4L724.3 1808.2L767.3 1565.4Z" fill="#1b1b1b" stroke="#a239ea"></path><path d="M562.5 501.5L360.6 671.3L540.5 775.3Z" fill="#1c1c1c" stroke="#a239ea"></path><path d="M131.8 985.1L228.8 1078.9L333.6 949.1Z" fill="#181818" stroke="#a239ea"></path><path d="M333.6 949.1L228.8 1078.9L373.6 1022.9Z" fill="#1e1e1e" stroke="#a239ea"></path><path d="M297.6 1506.5L407.6 1609.4L533.5 1405.5Z" fill="#181818" stroke="#a239ea"></path><path d="M1428.5 1878.2L1351.7 1803.2L1376.5 2000Z" fill="#171717" stroke="#a239ea"></path><path d="M1116.9 1803.2L1351.7 1803.2L1137.9 1666.4Z" fill="#232323" stroke="#a239ea"></path><path d="M1426.5 1574.4L1650.4 1672.4L1567.4 1445.5Z" fill="#181818" stroke="#a239ea"></path><path d="M1351.7 1803.2L1116.9 1803.2L1253.7 2000Z" fill="#1e1e1e" stroke="#a239ea"></path><path d="M297.6 1506.5L533.5 1405.5L382.6 1313.7Z" fill="#212121" stroke="#a239ea"></path><path d="M611.5 1685.4L535.5 1745.2L724.3 1808.2Z" fill="#212121" stroke="#a239ea"></path><path d="M407.6 1609.4L535.5 1745.2L611.5 1685.4Z" fill="#212121" stroke="#a239ea"></path><path d="M916.1 285.6L798.3 322.6L865.1 533.5Z" fill="#1d1d1d" stroke="#a239ea"></path><path d="M193.8 1344.7L257.8 1400.5L382.6 1313.7Z" fill="#1e1e1e" stroke="#a239ea"></path><path d="M1858.2 1420.5L1795.2 1318.7L1567.4 1445.5Z" fill="#232323" stroke="#a239ea"></path><path d="M1567.4 1445.5L1795.2 1318.7L1575.4 1213.7Z" fill="#1c1c1c" stroke="#a239ea"></path><path d="M1612.4 719.3L1633.4 573.5L1428.5 677.3Z" fill="#171717" stroke="#a239ea"></path><path d="M899.1 192.8L916.1 285.6L1161.9 118.8Z" fill="#212121" stroke="#a239ea"></path><path d="M1852.2 736.3L1612.4 719.3L1653.4 830.1Z" fill="#1b1b1b" stroke="#a239ea"></path><path d="M1022.9 377.6L916.1 285.6L865.1 533.5Z" fill="#232323" stroke="#a239ea"></path><path d="M1255.7 314.6L1128.9 538.5L1395.5 527.5Z" fill="#1d1d1d" stroke="#a239ea"></path><path d="M257.8 1400.5L297.6 1506.5L382.6 1313.7Z" fill="#1b1b1b" stroke="#a239ea"></path><path d="M530.5 2000L724.3 1808.2L535.5 1745.2Z" fill="#212121" stroke="#a239ea"></path><path d="M1444.5 387.6L1255.7 314.6L1395.5 527.5Z" fill="#191919" stroke="#a239ea"></path><path d="M1633.4 573.5L1444.5 387.6L1395.5 527.5Z" fill="#1c1c1c" stroke="#a239ea"></path><path d="M228.8 1078.9L193.8 1344.7L382.6 1313.7Z" fill="#1b1b1b" stroke="#a239ea"></path><path d="M257.8 1400.5L161.8 1628.4L297.6 1506.5Z" fill="#1d1d1d" stroke="#a239ea"></path><path d="M1571.4 1866.2L1650.4 1672.4L1426.5 1574.4Z" fill="#181818" stroke="#a239ea"></path><path d="M2000 1159.9L1871.2 966.1L1748.2 1049.9Z" fill="#232323" stroke="#a239ea"></path><path d="M1748.2 1049.9L1871.2 966.1L1653.4 830.1Z" fill="#191919" stroke="#a239ea"></path><path d="M1351.7 1803.2L1571.4 1866.2L1426.5 1574.4Z" fill="#1c1c1c" stroke="#a239ea"></path><path d="M1036.9 2000L1116.9 1803.2L848.1 1807.2Z" fill="#171717" stroke="#a239ea"></path><path d="M114.8 710.3L131.8 985.1L333.6 949.1Z" fill="#212121" stroke="#a239ea"></path><path d="M228.8 1078.9L0 1252.7L193.8 1344.7Z" fill="#1e1e1e" stroke="#a239ea"></path><path d="M562.5 501.5L355.6 497.5L360.6 671.3Z" fill="#212121" stroke="#a239ea"></path><path d="M360.6 671.3L114.8 710.3L333.6 949.1Z" fill="#232323" stroke="#a239ea"></path><path d="M559.5 300.6L355.6 497.5L562.5 501.5Z" fill="#1b1b1b" stroke="#a239ea"></path><path d="M903.1 2000L848.1 1807.2L717.3 2000Z" fill="#181818" stroke="#a239ea"></path><path d="M903.1 2000L1036.9 2000L848.1 1807.2Z" fill="#232323" stroke="#a239ea"></path><path d="M717.3 2000L848.1 1807.2L724.3 1808.2Z" fill="#242424" stroke="#a239ea"></path><path d="M1650.4 1672.4L1858.2 1420.5L1567.4 1445.5Z" fill="#212121" stroke="#a239ea"></path><path d="M1795.2 1318.7L2000 1159.9L1748.2 1049.9Z" fill="#232323" stroke="#a239ea"></path><path d="M916.1 285.6L899.1 192.8L798.3 322.6Z" fill="#191919" stroke="#a239ea"></path><path d="M798.3 322.6L559.5 300.6L562.5 501.5Z" fill="#1c1c1c" stroke="#a239ea"></path><path d="M1161.9 118.8L916.1 285.6L1022.9 377.6Z" fill="#171717" stroke="#a239ea"></path><path d="M664.3 204.8L559.5 300.6L798.3 322.6Z" fill="#181818" stroke="#a239ea"></path><path d="M1871.2 966.1L1852.2 736.3L1653.4 830.1Z" fill="#1e1e1e" stroke="#a239ea"></path><path d="M1640.4 366.6L1376.5 253.8L1444.5 387.6Z" fill="#1b1b1b" stroke="#a239ea"></path><path d="M1444.5 387.6L1376.5 253.8L1255.7 314.6Z" fill="#212121" stroke="#a239ea"></path><path d="M1255.7 314.6L1228.7 168.8L1022.9 377.6Z" fill="#171717" stroke="#a239ea"></path><path d="M1640.4 366.6L1444.5 387.6L1633.4 573.5Z" fill="#1e1e1e" stroke="#a239ea"></path><path d="M1036.9 2000L1253.7 2000L1116.9 1803.2Z" fill="#1e1e1e" stroke="#a239ea"></path><path d="M530.5 2000L717.3 2000L724.3 1808.2Z" fill="#242424" stroke="#a239ea"></path><path d="M300.6 1803.2L535.5 1745.2L407.6 1609.4Z" fill="#232323" stroke="#a239ea"></path><path d="M1428.5 1878.2L1571.4 1866.2L1351.7 1803.2Z" fill="#202020" stroke="#a239ea"></path><path d="M1650.4 1672.4L1897.2 1663.4L1858.2 1420.5Z" fill="#1c1c1c" stroke="#a239ea"></path><path d="M1376.5 2000L1571.4 1866.2L1428.5 1878.2Z" fill="#232323" stroke="#a239ea"></path><path d="M1376.5 253.8L1228.7 168.8L1255.7 314.6Z" fill="#1c1c1c" stroke="#a239ea"></path><path d="M570.5 108.8L664.3 204.8L737.3 0Z" fill="#1e1e1e" stroke="#a239ea"></path><path d="M899.1 192.8L664.3 204.8L798.3 322.6Z" fill="#212121" stroke="#a239ea"></path><path d="M1745.2 356.6L1640.4 366.6L1633.4 573.5Z" fill="#232323" stroke="#a239ea"></path><path d="M1152.9 0L1161.9 118.8L1350.7 0Z" fill="#202020" stroke="#a239ea"></path><path d="M1253.7 2000L1376.5 2000L1351.7 1803.2Z" fill="#1c1c1c" stroke="#a239ea"></path><path d="M131.8 619.5L114.8 710.3L360.6 671.3Z" fill="#1c1c1c" stroke="#a239ea"></path><path d="M131.8 619.5L360.6 671.3L355.6 497.5Z" fill="#181818" stroke="#a239ea"></path><path d="M2000 1251.7L2000 1159.9L1795.2 1318.7Z" fill="#1d1d1d" stroke="#a239ea"></path><path d="M1871.2 966.1L2000 779.3L1852.2 736.3Z" fill="#1c1c1c" stroke="#a239ea"></path><path d="M1161.9 118.8L1228.7 168.8L1350.7 0Z" fill="#232323" stroke="#a239ea"></path><path d="M1228.7 168.8L1161.9 118.8L1022.9 377.6Z" fill="#191919" stroke="#a239ea"></path><path d="M2000 1159.9L2000 975.1L1871.2 966.1Z" fill="#191919" stroke="#a239ea"></path><path d="M1852.2 736.3L1849.2 510.5L1633.4 573.5Z" fill="#1e1e1e" stroke="#a239ea"></path><path d="M161.8 1628.4L407.6 1609.4L297.6 1506.5Z" fill="#191919" stroke="#a239ea"></path><path d="M255.8 1780.2L300.6 1803.2L407.6 1609.4Z" fill="#212121" stroke="#a239ea"></path><path d="M0 1431.5L161.8 1628.4L257.8 1400.5Z" fill="#171717" stroke="#a239ea"></path><path d="M0 1431.5L257.8 1400.5L193.8 1344.7Z" fill="#171717" stroke="#a239ea"></path><path d="M0 1041.9L228.8 1078.9L131.8 985.1Z" fill="#202020" stroke="#a239ea"></path><path d="M320.6 300.6L355.6 497.5L559.5 300.6Z" fill="#181818" stroke="#a239ea"></path><path d="M110.8 415.6L131.8 619.5L355.6 497.5Z" fill="#181818" stroke="#a239ea"></path><path d="M1858.2 1420.5L2000 1251.7L1795.2 1318.7Z" fill="#1e1e1e" stroke="#a239ea"></path><path d="M2000 1473.5L2000 1251.7L1858.2 1420.5Z" fill="#171717" stroke="#a239ea"></path><path d="M0 864.1L131.8 985.1L114.8 710.3Z" fill="#181818" stroke="#a239ea"></path><path d="M0 864.1L0 1041.9L131.8 985.1Z" fill="#1b1b1b" stroke="#a239ea"></path><path d="M161.8 1628.4L255.8 1780.2L407.6 1609.4Z" fill="#181818" stroke="#a239ea"></path><path d="M441.6 2000L535.5 1745.2L300.6 1803.2Z" fill="#1d1d1d" stroke="#a239ea"></path><path d="M441.6 2000L530.5 2000L535.5 1745.2Z" fill="#1c1c1c" stroke="#a239ea"></path><path d="M0 1041.9L0 1252.7L228.8 1078.9Z" fill="#191919" stroke="#a239ea"></path><path d="M2000 490.5L1849.2 510.5L1852.2 736.3Z" fill="#181818" stroke="#a239ea"></path><path d="M0 780.3L0 864.1L114.8 710.3Z" fill="#181818" stroke="#a239ea"></path><path d="M2000 975.1L2000 779.3L1871.2 966.1Z" fill="#1e1e1e" stroke="#a239ea"></path><path d="M1849.2 510.5L1745.2 356.6L1633.4 573.5Z" fill="#191919" stroke="#a239ea"></path><path d="M1485.5 0L1350.7 0L1376.5 253.8Z" fill="#1b1b1b" stroke="#a239ea"></path><path d="M1891.2 1769.2L1650.4 1672.4L1571.4 1866.2Z" fill="#242424" stroke="#a239ea"></path><path d="M1891.2 1769.2L1897.2 1663.4L1650.4 1672.4Z" fill="#1b1b1b" stroke="#a239ea"></path><path d="M343.6 106.8L320.6 300.6L559.5 300.6Z" fill="#242424" stroke="#a239ea"></path><path d="M1897.2 1663.4L2000 1473.5L1858.2 1420.5Z" fill="#242424" stroke="#a239ea"></path><path d="M0 559.5L0 780.3L114.8 710.3Z" fill="#242424" stroke="#a239ea"></path><path d="M0 559.5L114.8 710.3L131.8 619.5Z" fill="#1d1d1d" stroke="#a239ea"></path><path d="M0 1252.7L0 1431.5L193.8 1344.7Z" fill="#191919" stroke="#a239ea"></path><path d="M161.8 1628.4L0 1795.2L255.8 1780.2Z" fill="#202020" stroke="#a239ea"></path><path d="M197.8 2000L441.6 2000L300.6 1803.2Z" fill="#171717" stroke="#a239ea"></path><path d="M737.3 0L664.3 204.8L899.1 192.8Z" fill="#202020" stroke="#a239ea"></path><path d="M664.3 204.8L570.5 108.8L559.5 300.6Z" fill="#202020" stroke="#a239ea"></path><path d="M1161.9 118.8L973.1 0L899.1 192.8Z" fill="#232323" stroke="#a239ea"></path><path d="M1152.9 0L973.1 0L1161.9 118.8Z" fill="#232323" stroke="#a239ea"></path><path d="M1686.4 2000L1891.2 1769.2L1571.4 1866.2Z" fill="#1d1d1d" stroke="#a239ea"></path><path d="M1897.2 1663.4L2000 1707.4L2000 1473.5Z" fill="#181818" stroke="#a239ea"></path><path d="M1350.7 0L1228.7 168.8L1376.5 253.8Z" fill="#242424" stroke="#a239ea"></path><path d="M1376.5 2000L1686.4 2000L1571.4 1866.2Z" fill="#232323" stroke="#a239ea"></path><path d="M260.8 164.8L110.8 415.6L320.6 300.6Z" fill="#191919" stroke="#a239ea"></path><path d="M320.6 300.6L110.8 415.6L355.6 497.5Z" fill="#242424" stroke="#a239ea"></path><path d="M973.1 0L737.3 0L899.1 192.8Z" fill="#232323" stroke="#a239ea"></path><path d="M110.8 415.6L0 559.5L131.8 619.5Z" fill="#1b1b1b" stroke="#a239ea"></path><path d="M1708.4 165.8L1376.5 253.8L1640.4 366.6Z" fill="#181818" stroke="#a239ea"></path><path d="M0 1431.5L0 1661.4L161.8 1628.4Z" fill="#1d1d1d" stroke="#a239ea"></path><path d="M255.8 1780.2L197.8 2000L300.6 1803.2Z" fill="#181818" stroke="#a239ea"></path><path d="M2000 1817.2L2000 1707.4L1891.2 1769.2Z" fill="#181818" stroke="#a239ea"></path><path d="M1891.2 1769.2L2000 1707.4L1897.2 1663.4Z" fill="#171717" stroke="#a239ea"></path><path d="M1849.2 510.5L2000 432.6L1745.2 356.6Z" fill="#1e1e1e" stroke="#a239ea"></path><path d="M1751.2 189.8L1708.4 165.8L1640.4 366.6Z" fill="#1c1c1c" stroke="#a239ea"></path><path d="M2000 779.3L2000 490.5L1852.2 736.3Z" fill="#1c1c1c" stroke="#a239ea"></path><path d="M1751.2 189.8L1640.4 366.6L1745.2 356.6Z" fill="#202020" stroke="#a239ea"></path><path d="M2000 191.8L1751.2 189.8L1745.2 356.6Z" fill="#242424" stroke="#a239ea"></path><path d="M2000 490.5L2000 432.6L1849.2 510.5Z" fill="#202020" stroke="#a239ea"></path><path d="M570.5 108.8L343.6 106.8L559.5 300.6Z" fill="#1d1d1d" stroke="#a239ea"></path><path d="M110.8 415.6L0 344.6L0 559.5Z" fill="#191919" stroke="#a239ea"></path><path d="M505.5 0L343.6 106.8L570.5 108.8Z" fill="#171717" stroke="#a239ea"></path><path d="M343.6 106.8L260.8 164.8L320.6 300.6Z" fill="#1b1b1b" stroke="#a239ea"></path><path d="M1708.4 165.8L1485.5 0L1376.5 253.8Z" fill="#202020" stroke="#a239ea"></path><path d="M1713.4 0L1485.5 0L1708.4 165.8Z" fill="#171717" stroke="#a239ea"></path><path d="M737.3 0L505.5 0L570.5 108.8Z" fill="#1b1b1b" stroke="#a239ea"></path><path d="M0 1795.2L197.8 2000L255.8 1780.2Z" fill="#1d1d1d" stroke="#a239ea"></path><path d="M1686.4 2000L1836.2 2000L1891.2 1769.2Z" fill="#191919" stroke="#a239ea"></path><path d="M1836.2 2000L2000 1817.2L1891.2 1769.2Z" fill="#171717" stroke="#a239ea"></path><path d="M0 1661.4L0 1795.2L161.8 1628.4Z" fill="#191919" stroke="#a239ea"></path><path d="M505.5 0L402.6 0L343.6 106.8Z" fill="#202020" stroke="#a239ea"></path><path d="M343.6 106.8L246.8 0L260.8 164.8Z" fill="#232323" stroke="#a239ea"></path><path d="M0 115.8L0 344.6L260.8 164.8Z" fill="#1d1d1d" stroke="#a239ea"></path><path d="M260.8 164.8L0 344.6L110.8 415.6Z" fill="#181818" stroke="#a239ea"></path><path d="M1852.2 0L1713.4 0L1751.2 189.8Z" fill="#1e1e1e" stroke="#a239ea"></path><path d="M1751.2 189.8L1713.4 0L1708.4 165.8Z" fill="#242424" stroke="#a239ea"></path><path d="M1836.2 2000L2000 2000L2000 1817.2Z" fill="#1c1c1c" stroke="#a239ea"></path><path d="M402.6 0L246.8 0L343.6 106.8Z" fill="#202020" stroke="#a239ea"></path><path d="M2000 432.6L2000 191.8L1745.2 356.6Z" fill="#1e1e1e" stroke="#a239ea"></path><path d="M0 1795.2L0 2000L197.8 2000Z" fill="#1b1b1b" stroke="#a239ea"></path><path d="M2000 191.8L1852.2 0L1751.2 189.8Z" fill="#191919" stroke="#a239ea"></path><path d="M246.8 0L0 115.8L260.8 164.8Z" fill="#1b1b1b" stroke="#a239ea"></path><path d="M2000 191.8L2000 0L1852.2 0Z" fill="#1c1c1c" stroke="#a239ea"></path><path d="M246.8 0L0 0L0 115.8Z" fill="#1d1d1d" stroke="#a239ea"></path></g></svg>